<?xml version="1.0" encoding="UTF-8" standalone="no"?>
<!-- Created with Inkscape (http://www.inkscape.org/) -->

<svg
   width="148.61462"
   height="116.78076"
   viewBox="0 0 39.320952 30.898243"
   version="1.1"
   id="svg1"
   inkscape:version="1.3 (0e150ed6c4, 2023-07-21)"
   sodipodi:docname="AbstrakTS.svg"
   inkscape:export-filename="..\Exported Files\AbstrakTS\AbstrakTS_logo.svg"
   inkscape:export-xdpi="207.36"
   inkscape:export-ydpi="207.36"
   xmlns:inkscape="http://www.inkscape.org/namespaces/inkscape"
   xmlns:sodipodi="http://sodipodi.sourceforge.net/DTD/sodipodi-0.dtd"
   xmlns="http://www.w3.org/2000/svg"
   xmlns:svg="http://www.w3.org/2000/svg">
  <sodipodi:namedview
     id="namedview1"
     pagecolor="#ffffff"
     bordercolor="#000000"
     borderopacity="0.25"
     inkscape:showpageshadow="2"
     inkscape:pageopacity="0.0"
     inkscape:pagecheckerboard="0"
     inkscape:deskcolor="#d1d1d1"
     inkscape:document-units="mm"
     inkscape:zoom="0.18106587"
     inkscape:cx="2880.1673"
     inkscape:cy="1057.6262"
     inkscape:window-width="1920"
     inkscape:window-height="1009"
     inkscape:window-x="-8"
     inkscape:window-y="-8"
     inkscape:window-maximized="1"
     inkscape:current-layer="layer1" />
  <defs
     id="defs1" />
  <g
     inkscape:label="Layer 1"
     inkscape:groupmode="layer"
     id="layer1"
     transform="translate(-310.62079,-475.45624)">
    <g
       id="g4-4-3"
       transform="matrix(0.34609185,0,0,0.34609185,278.57127,445.12031)"
       style="fill:#87decd;fill-opacity:1">
      <path
         inkscape:connector-curvature="0"
         style="fill:#87decd;fill-opacity:1;fill-rule:nonzero;stroke:none;stroke-width:0.778454;stroke-linecap:round;stroke-linejoin:round;stroke-miterlimit:4;stroke-dasharray:none;stroke-opacity:1"
         d="m 122.54595,87.662565 a 3.5322922,3.5322922 0 0 0 -0.2973,0.0146 12.951738,12.951738 0 0 0 -12.20847,9.58676 h -0.0146 v 0 L 93.048073,160.62681 v 0 a 12.951739,12.951739 0 0 0 -0.44392,3.35196 12.951739,12.951739 0 0 0 12.951857,12.95171 12.951739,12.951739 0 0 0 12.50503,-9.6011 h 0.0147 l 18.28458,-68.238735 h 0.0146 a 5.8871541,5.8871541 0 0 1 5.6797,-4.3657 5.8871541,5.8871541 0 0 1 5.68436,4.36442 v 0 l 16.97793,63.362705 h -0.0147 a 5.8871541,5.8871541 0 0 1 0.2075,1.52191 5.8871541,5.8871541 0 0 1 -5.88725,5.88725 5.8871541,5.8871541 0 0 1 -5.67967,-4.36527 h -0.0146 l -2.98132,-11.12727 -8.54064,-31.87293 v 0 a 3.5322922,3.5322922 0 0 0 -3.4103,-2.61892 3.5322922,3.5322922 0 0 0 -3.53233,3.53238 3.5322922,3.5322922 0 0 0 0.12132,0.9138 v 0 l 11.52223,42.99967 h 0.0147 a 12.951739,12.951739 0 0 0 12.50564,9.60107 12.951739,12.951739 0 0 0 12.95169,-12.95161 12.951739,12.951739 0 0 0 -0.44374,-3.35162 v 0 L 154.55768,97.256675 v 0 h -0.0146 a 12.951738,12.951738 0 0 0 -12.49537,-9.60381 v 0 a 12.951738,12.951738 0 0 0 -12.50555,9.60153 h -0.0147 l -15.30284,57.111335 -2.98132,11.12718 h -0.0147 a 5.8871541,5.8871541 0 0 1 -5.6797,4.36531 5.8871541,5.8871541 0 0 1 -5.887137,-5.88719 5.8871541,5.8871541 0 0 1 0.20725,-1.52191 h -0.0147 l 2.984007,-11.13677 13.99409,-52.226045 h 0.0147 a 5.8871541,5.8871541 0 0 1 5.6797,-4.3657 3.5322922,3.5322922 0 0 0 3.5323,-3.53231 3.5322922,3.5322922 0 0 0 -3.5323,-3.53231 z"
         id="path431-2-1-6-6-2-2-0-3-1-1-7-8-2-9-4-0-8-2-2-9-0-6-2-7-26"
         inkscape:export-filename="E:\R-DESIGN\Abstrak [Project]\Logo &amp; Designs\Abstrak_wallpaper - green.png"
         inkscape:export-xdpi="192"
         inkscape:export-ydpi="192" />
      <path
         id="rect1-6-6-2-6-0-2"
         style="fill:#87decd;fill-opacity:1;stroke-width:0.203011"
         d="m 200.66049,87.652865 a 13.229167,13.229167 0 0 0 -13.22503,13.152175 h -0.004 v 0.077 21.08967 a 6.6145835,6.6145835 0 0 1 -6.61458,6.61458 h -2.22312 c -1.83224,0 -3.30729,1.47506 -3.30729,3.30729 0,1.83224 1.47505,3.30729 3.30729,3.30729 h 2.25052 v -0.002 a 13.229167,13.229167 0 0 0 13.20164,-13.22716 v -21.08967 a 6.6145835,6.6145835 0 0 1 6.61458,-6.614592 h 2.25051 c 1.83224,0 3.30729,-1.475055 3.30729,-3.307291 0,-1.832236 -1.47505,-3.307292 -3.30729,-3.307292 z" />
      <rect
         style="fill:#87decd;fill-opacity:1;stroke-width:0.256791"
         id="rect1-6-6-2-69-2-4-4"
         width="21.166666"
         height="6.6145835"
         x="161.39584"
         y="87.652863"
         ry="3.3072917"
         rx="0" />
      <rect
         style="fill:#87decd;fill-opacity:1;stroke-width:0.256791"
         id="rect1-6-6-2-1-7-3-3-0"
         width="21.166666"
         height="6.6145835"
         x="90.960136"
         y="-175.28647"
         ry="3.3072917"
         rx="0"
         transform="rotate(90)" />
    </g>
  </g>
</svg>
